<svg id="paths_-_join" data-name="paths - join" xmlns="http://www.w3.org/2000/svg" viewBox="0 0 24 24"><defs><style>.cls-1{fill:#3da2ec;}</style></defs><rect class="cls-1" x="11" y="3" width="2" height="3.11"/><rect class="cls-1" x="15.82" y="5.95" width="2.59" height="2" transform="translate(0.38 14.78) rotate(-47.16)"/><rect class="cls-1" x="5.88" y="5.65" width="2" height="2.59" transform="translate(-2.89 6.53) rotate(-42.85)"/><rect class="cls-1" x="11" y="17.79" width="2" height="2.74"/><rect class="cls-1" x="16.12" y="15.67" width="2" height="2.67" transform="translate(-6.96 15.56) rotate(-41.38)"/><rect class="cls-1" x="5.55" y="16" width="2.67" height="2" transform="translate(-10.42 10.93) rotate(-48.62)"/><path class="cls-1" d="M18,11.09V10H14v1H10V10H6v.86A4,4,0,0,1,7,3V1A6,6,0,0,0,6,12.91V14h4V13h4v1h4v-.86A4,4,0,0,1,17,21v2a6,6,0,0,0,1-11.91Z"/></svg>