<?xml version="1.0" encoding="iso-8859-1"?>
<!-- Generator: Adobe Illustrator 24.1.0, SVG Export Plug-In . SVG Version: 6.00 Build 0)  -->
<svg version="1.1" xmlns="http://www.w3.org/2000/svg" xmlns:xlink="http://www.w3.org/1999/xlink" x="0px" y="0px"
	 viewBox="0 0 24 24" style="enable-background:new 0 0 24 24;" xml:space="preserve">
<g id="paths_-_center">
	<g>
		<polygon style="fill:#3DA2EC;" points="4,16 6.586,16 1.293,21.293 2.707,22.707 8,17.414 8,20 10,20 10,14 4,14 		"/>
		<polygon style="fill:#3DA2EC;" points="20,16 20,14 14,14 14,20 16,20 16,17.414 21.293,22.707 22.707,21.293 17.414,16 		"/>
		<polygon style="fill:#3DA2EC;" points="20,8 17.414,8 22.707,2.707 21.293,1.293 16,6.586 16,4 14,4 14,10 20,10 		"/>
		<polygon style="fill:#3DA2EC;" points="8,6.586 2.707,1.293 1.293,2.707 6.586,8 4,8 4,10 10,10 10,4 8,4 		"/>
	</g>
</g>
<g id="Layer_1">
</g>
</svg>
