<?xml version="1.0" encoding="iso-8859-1"?>
<!-- Generator: Adobe Illustrator 24.1.0, SVG Export Plug-In . SVG Version: 6.00 Build 0)  -->
<svg version="1.1" xmlns="http://www.w3.org/2000/svg" xmlns:xlink="http://www.w3.org/1999/xlink" x="0px" y="0px"
	 viewBox="0 0 24 24" style="enable-background:new 0 0 24 24;" xml:space="preserve">
<g id="paths_-_open">
	<g>
		<rect x="11" y="1" style="fill:#3DA2EC;" width="2" height="4.111"/>
		
			<rect x="16.795" y="4.215" transform="matrix(0.5736 -0.8191 0.8191 0.5736 3.7659 17.6656)" style="fill:#3DA2EC;" width="4.111" height="2"/>
		
			<rect x="4.148" y="3.16" transform="matrix(0.8192 -0.5736 0.5736 0.8192 -2.0604 3.8962)" style="fill:#3DA2EC;" width="2" height="4.111"/>
	</g>
	<path style="fill:#3DA2EC;" d="M12,23c-3.86,0-7-3.141-7-7c0-2.911,1.757-5.473,4.478-6.525l0.722,1.865
		C8.256,12.092,7,13.921,7,16c0,2.757,2.243,5,5,5s5-2.243,5-5c0-2.078-1.256-3.907-3.199-4.66l0.723-1.865
		C17.243,10.528,19,13.089,19,16C19,19.859,15.859,23,12,23z"/>
</g>
<g id="Layer_1">
</g>
</svg>
