<?xml version="1.0" encoding="iso-8859-1"?>
<!-- Generator: Adobe Illustrator 24.1.0, SVG Export Plug-In . SVG Version: 6.00 Build 0)  -->
<svg version="1.1" xmlns="http://www.w3.org/2000/svg" xmlns:xlink="http://www.w3.org/1999/xlink" x="0px" y="0px"
	 viewBox="0 0 24 24" style="enable-background:new 0 0 24 24;" xml:space="preserve">
<g id="paths_-_flipL">
	<g>
		<path style="fill:#3DA2EC;" d="M10,1v2h1v8H7.414l1.829-1.829L7.829,7.757L3.586,12l4.243,4.242l1.414-1.414L7.414,13H11v8h-1v2h3
			h10V1H10z M21,21h-8v-8h6v-2h-6V3h8V21z"/>
		<polygon style="fill:#3DA2EC;" points="3,3 4,3 4,1 1,1 1,4 3,4 		"/>
		<rect x="1" y="6.824" style="fill:#3DA2EC;" width="2" height="3.765"/>
		<rect x="1" y="13.412" style="fill:#3DA2EC;" width="2" height="3.765"/>
		<polygon style="fill:#3DA2EC;" points="3,20 1,20 1,23 4,23 4,21 3,21 		"/>
		<rect x="5.8" y="21" style="fill:#3DA2EC;" width="2.4" height="2"/>
		<rect x="5.8" y="1" style="fill:#3DA2EC;" width="2.4" height="2"/>
	</g>
</g>
<g id="Layer_1">
</g>
</svg>
