<?xml version="1.0" encoding="iso-8859-1"?>
<!-- Generator: Adobe Illustrator 24.1.0, SVG Export Plug-In . SVG Version: 6.00 Build 0)  -->
<svg version="1.1" xmlns="http://www.w3.org/2000/svg" xmlns:xlink="http://www.w3.org/1999/xlink" x="0px" y="0px"
	 viewBox="0 0 24 24" style="enable-background:new 0 0 24 24;" xml:space="preserve">
<g id="paths_-_flipT">
	<g>
		<polygon style="fill:#3DA2EC;" points="20,1 20,3 21,3 21,4 23,4 23,1 		"/>
		<rect x="6.824" y="1" style="fill:#3DA2EC;" width="3.765" height="2"/>
		<rect x="13.412" y="1" style="fill:#3DA2EC;" width="3.765" height="2"/>
		<polygon style="fill:#3DA2EC;" points="3,3 4,3 4,1 1,1 1,4 3,4 		"/>
		<rect x="1" y="5.8" style="fill:#3DA2EC;" width="2" height="2.4"/>
		<path style="fill:#3DA2EC;" d="M21,11h-8V7.414l1.828,1.828l1.414-1.414L12,3.586L7.757,7.829l1.414,1.414L11,7.414V11H3v-1H1v13
			h22V13v-2v-1h-2V11z M21,21H3v-8h8v6h2v-6h8V21z"/>
		<rect x="21" y="5.8" style="fill:#3DA2EC;" width="2" height="2.4"/>
	</g>
</g>
<g id="Layer_1">
</g>
</svg>
