<?xml version="1.0" encoding="iso-8859-1"?>
<!-- Generator: Adobe Illustrator 24.1.0, SVG Export Plug-In . SVG Version: 6.00 Build 0)  -->
<svg version="1.1" xmlns="http://www.w3.org/2000/svg" xmlns:xlink="http://www.w3.org/1999/xlink" x="0px" y="0px"
	 viewBox="0 0 24 24" style="enable-background:new 0 0 24 24;" xml:space="preserve">
<g id="paths_-_flipB">
	<g>
		<path style="fill:#3DA2EC;" d="M1,1v13h2v-1h8v3.586l-1.829-1.828l-1.414,1.414L12,20.414l4.242-4.242l-1.414-1.414L13,16.586V13
			h8v1h2V1H1z M21,11h-8V5h-2v6H3V3h18V11z"/>
		<polygon style="fill:#3DA2EC;" points="3,20 1,20 1,23 4,23 4,21 3,21 		"/>
		<rect x="6.824" y="21" style="fill:#3DA2EC;" width="3.765" height="2"/>
		<rect x="13.412" y="21" style="fill:#3DA2EC;" width="3.765" height="2"/>
		<polygon style="fill:#3DA2EC;" points="21,21 20,21 20,23 23,23 23,20 21,20 		"/>
		<rect x="21" y="15.8" style="fill:#3DA2EC;" width="2" height="2.4"/>
		<rect x="1" y="15.8" style="fill:#3DA2EC;" width="2" height="2.4"/>
	</g>
</g>
<g id="Layer_1">
</g>
</svg>
