<?xml version="1.0" encoding="iso-8859-1"?>
<!-- Generator: Adobe Illustrator 24.1.0, SVG Export Plug-In . SVG Version: 6.00 Build 0)  -->
<svg version="1.1" xmlns="http://www.w3.org/2000/svg" xmlns:xlink="http://www.w3.org/1999/xlink" x="0px" y="0px"
	 viewBox="0 0 24 24" style="enable-background:new 0 0 24 24;" xml:space="preserve">
<g id="paths_-_flipR">
	<g>
		<polygon style="fill:#3DA2EC;" points="21,21 20,21 20,23 23,23 23,20 21,20 		"/>
		<rect x="21" y="6.824" style="fill:#3DA2EC;" width="2" height="3.765"/>
		<rect x="21" y="13.412" style="fill:#3DA2EC;" width="2" height="3.765"/>
		<polygon style="fill:#3DA2EC;" points="20,1 20,3 21,3 21,4 23,4 23,1 		"/>
		<rect x="15.8" y="1" style="fill:#3DA2EC;" width="2.4" height="2"/>
		<rect x="15.8" y="21" style="fill:#3DA2EC;" width="2.4" height="2"/>
		<path style="fill:#3DA2EC;" d="M16.172,16.242L20.414,12l-4.242-4.243l-1.414,1.414L16.586,11H13V3h1V1H1v22h13v-2h-1v-8h3.586
			l-1.828,1.828L16.172,16.242z M11,21H3V3h8v8H5v2h6V21z"/>
	</g>
</g>
<g id="Layer_1">
</g>
</svg>
