<?xml version="1.0" encoding="UTF-8"?><svg id="a" xmlns="http://www.w3.org/2000/svg" viewBox="0 0 24 24"><defs><style>.b{fill:#3da2ec;}</style></defs><rect class="b" x="11" y="1" width="2" height="4.11"/><rect class="b" x="16.8" y="4.22" width="4.11" height="2" transform="translate(3.77 17.67) rotate(-55.01)"/><rect class="b" x="4.15" y="3.16" width="2" height="4.11" transform="translate(-2.06 3.9) rotate(-35)"/><path class="b" d="M17,11h-3.97v4h1.98c.47,.63,.75,1.41,.75,2.24,0,2.07-1.69,3.76-3.76,3.76s-3.76-1.69-3.76-3.76c0-.83,.28-1.61,.75-2.24h2.01v-4H7v3.4c-.48,.85-.76,1.81-.76,2.84,0,3.18,2.58,5.76,5.76,5.76s5.76-2.58,5.76-5.76c0-1-.3-1.95-.76-2.78v-3.46Z"/></svg>