<?xml version="1.0" encoding="iso-8859-1"?>
<!-- Generator: Adobe Illustrator 24.1.0, SVG Export Plug-In . SVG Version: 6.00 Build 0)  -->
<svg version="1.1" xmlns="http://www.w3.org/2000/svg" xmlns:xlink="http://www.w3.org/1999/xlink" x="0px" y="0px"
	 viewBox="0 0 24 24" style="enable-background:new 0 0 24 24;" xml:space="preserve">
<g id="points_-_open">
	<g>
		<rect x="11" y="1" style="fill:#3DA2EC;" width="2" height="4.111"/>
		
			<rect x="16.796" y="4.216" transform="matrix(0.5735 -0.8192 0.8192 0.5735 3.7679 17.6681)" style="fill:#3DA2EC;" width="4.111" height="2"/>
		
			<rect x="4.149" y="3.16" transform="matrix(0.8191 -0.5736 0.5736 0.8191 -2.0604 3.8967)" style="fill:#3DA2EC;" width="2" height="4.111"/>
		<path style="fill:#3DA2EC;" d="M17,11h-3.97v4h1.98c0.473,0.634,0.749,1.41,0.749,2.24c0,2.073-1.687,3.76-3.76,3.76
			s-3.76-1.687-3.76-3.76c0-1.534,0.919-2.901,2.343-3.481l-0.755-1.852c-2.18,0.889-3.588,2.981-3.588,5.333
			C6.24,20.416,8.824,23,12,23s5.76-2.584,5.76-5.76c0-1.001-0.298-1.948-0.76-2.782V11z"/>
	</g>
</g>
<g id="Layer_1">
</g>
</svg>
