<?xml version="1.0" encoding="iso-8859-1"?>
<!-- Generator: Adobe Illustrator 24.1.0, SVG Export Plug-In . SVG Version: 6.00 Build 0)  -->
<svg version="1.1" xmlns="http://www.w3.org/2000/svg" xmlns:xlink="http://www.w3.org/1999/xlink" x="0px" y="0px"
	 viewBox="0 0 24 24" style="enable-background:new 0 0 24 24;" xml:space="preserve">
<g id="points_-_split">
	<g>
		<rect x="11" y="3" style="fill:#3DA2EC;" width="2" height="3.111"/>
		
			<rect x="15.824" y="5.949" transform="matrix(0.68 -0.7332 0.7332 0.68 0.3825 14.7758)" style="fill:#3DA2EC;" width="2.591" height="2.001"/>
		
			<rect x="5.881" y="5.654" transform="matrix(0.7332 -0.68 0.68 0.7332 -2.8901 6.5335)" style="fill:#3DA2EC;" width="2.001" height="2.591"/>
		<rect x="11" y="17.788" style="fill:#3DA2EC;" width="2" height="2.744"/>
		
			<rect x="16.119" y="15.667" transform="matrix(0.7504 -0.661 0.661 0.7504 -6.9638 15.5589)" style="fill:#3DA2EC;" width="2" height="2.665"/>
		
			<rect x="5.548" y="16" transform="matrix(0.661 -0.7504 0.7504 0.661 -10.4238 10.9257)" style="fill:#3DA2EC;" width="2.665" height="2"/>
		<path style="fill:#3DA2EC;" d="M18,11.09V10h-4v4h4v-0.858c1.721,0.447,3,1.999,3,3.858c0,2.206-1.794,4-4,4v2
			c3.309,0,6-2.691,6-6C23,14.033,20.833,11.569,18,11.09z"/>
		<path style="fill:#3DA2EC;" d="M6,10.858c-1.72-0.447-3-2-3-3.858c0-2.206,1.794-4,4-4V1C3.691,1,1,3.691,1,7
			c0,2.967,2.167,5.431,5,5.91V14h4v-4H6V10.858z"/>
	</g>
</g>
<g id="Layer_1">
</g>
</svg>
