<?xml version="1.0" encoding="iso-8859-1"?>
<!-- Generator: Adobe Illustrator 24.1.0, SVG Export Plug-In . SVG Version: 6.00 Build 0)  -->
<svg version="1.1" xmlns="http://www.w3.org/2000/svg" xmlns:xlink="http://www.w3.org/1999/xlink" x="0px" y="0px"
	 viewBox="0 0 20 18.471" style="enable-background:new 0 0 20 18.471;" xml:space="preserve">
<g id="reload">
	<g>
		<g>
			<path style="fill:#3DA2EC;" d="M9.785,16.471c-2.439,0-4.715-1.26-6.041-3.275l2.609-1.263L1.126,9.235L0,15.009l1.945-0.942
				c1.668,2.697,4.638,4.404,7.84,4.404c3.539,0,6.811-2.071,8.335-5.276l-1.807-0.859C15.119,14.848,12.557,16.471,9.785,16.471z"
				/>
		</g>
		<g>
			<path style="fill:#3DA2EC;" d="M17.717,4.567C16.07,1.776,13.05,0,9.785,0C6.247,0,2.975,2.071,1.45,5.276l1.806,0.859
				C4.451,3.624,7.014,2,9.785,2c2.503,0,4.824,1.331,6.133,3.438l-2.271,1.1l5.227,2.698L20,3.462L17.717,4.567z"/>
		</g>
	</g>
</g>
<g id="Layer_1">
</g>
</svg>
