<?xml version="1.0" encoding="iso-8859-1"?>
<!-- Generator: Adobe Illustrator 24.1.0, SVG Export Plug-In . SVG Version: 6.00 Build 0)  -->
<svg version="1.1" xmlns="http://www.w3.org/2000/svg" xmlns:xlink="http://www.w3.org/1999/xlink" x="0px" y="0px"
	 viewBox="0 0 24 24" style="enable-background:new 0 0 24 24;" xml:space="preserve">
<g id="space_-_local">
	<path style="fill:#3DA2EC;" d="M2,2v20h20V2H2z M20,8h-4V4h4V8z M10,14v-4h4v4H10z M14,16v4h-4v-4H14z M8,14H4v-4h4V14z M10,8V4h4
		v4H10z M16,10h4v4h-4V10z M8,4v4H4V4H8z M4,16h4v4H4V16z M16,20v-4h4v4H16z"/>
</g>
<g id="Layer_1">
</g>
</svg>
