<?xml version="1.0" encoding="iso-8859-1"?>
<!-- Generator: Adobe Illustrator 24.1.0, SVG Export Plug-In . SVG Version: 6.00 Build 0)  -->
<svg version="1.1" xmlns="http://www.w3.org/2000/svg" xmlns:xlink="http://www.w3.org/1999/xlink" x="0px" y="0px"
	 viewBox="0 0 24 24" style="enable-background:new 0 0 24 24;" xml:space="preserve">
<g id="tangents_-_matchAngle">
	<path style="fill:#3DA2EC;" d="M17.414,16L14.7,13.286C14.887,12.895,15,12.462,15,12c0-1.657-1.343-3-3-3
		c-0.462,0-0.895,0.113-1.286,0.3L7.7,6.286C7.887,5.895,8,5.462,8,5c0-1.657-1.343-3-3-3S2,3.343,2,5s1.343,3,3,3
		c0.462,0,0.895-0.113,1.286-0.3L9.3,10.714C9.113,11.105,9,11.538,9,12c0,1.657,1.343,3,3,3c0.462,0,0.895-0.113,1.286-0.3
		L16,17.414V22h6v-6H17.414z"/>
</g>
<g id="Layer_1">
</g>
</svg>
