<?xml version="1.0" encoding="iso-8859-1"?>
<!-- Generator: Adobe Illustrator 24.1.0, SVG Export Plug-In . SVG Version: 6.00 Build 0)  -->
<svg version="1.1" xmlns="http://www.w3.org/2000/svg" xmlns:xlink="http://www.w3.org/1999/xlink" x="0px" y="0px"
	 viewBox="0 0 24 24" style="enable-background:new 0 0 24 24;" xml:space="preserve">
<g id="tangents_-_matchLength">
	<path style="fill:#3DA2EC;" d="M19,14c-0.277,0-0.54,0.05-0.795,0.12L15,9.542V4H9v5.542L5.795,14.12C5.54,14.05,5.277,14,5,14
		c-1.657,0-3,1.343-3,3s1.343,3,3,3s3-1.343,3-3c0-0.65-0.212-1.247-0.563-1.738L11.121,10h1.759l3.683,5.262
		C16.212,15.753,16,16.35,16,17c0,1.657,1.343,3,3,3s3-1.343,3-3S20.657,14,19,14z"/>
</g>
<g id="Layer_1">
</g>
</svg>
