<?xml version="1.0" encoding="iso-8859-1"?>
<!-- Generator: Adobe Illustrator 24.1.0, SVG Export Plug-In . SVG Version: 6.00 Build 0)  -->
<svg version="1.1" xmlns="http://www.w3.org/2000/svg" xmlns:xlink="http://www.w3.org/1999/xlink" x="0px" y="0px"
	 viewBox="0 0 24 24" style="enable-background:new 0 0 24 24;" xml:space="preserve">
<g id="tangents_-_flatH">
	<g>
		<path style="fill:#3DA2EC;" d="M8,7c0-1.657-1.343-3-3-3S2,5.343,2,7s1.343,3,3,3c0.506,0,0.976-0.137,1.394-0.359l0.558,0.558
			C5.05,12.359,4,15.096,4,18H2v2h4v-2c0-2.37,0.839-4.607,2.366-6.387l7.094,7.094l1.414-1.414L7.759,8.178
			C7.913,7.816,8,7.418,8,7z"/>
		<rect x="10" y="18" style="fill:#3DA2EC;" width="4" height="2"/>
		<rect x="18" y="18" style="fill:#3DA2EC;" width="4" height="2"/>
	</g>
</g>
<g id="Layer_1">
</g>
</svg>
