<?xml version="1.0" encoding="iso-8859-1"?>
<!-- Generator: Adobe Illustrator 24.1.0, SVG Export Plug-In . SVG Version: 6.00 Build 0)  -->
<svg version="1.1" xmlns="http://www.w3.org/2000/svg" xmlns:xlink="http://www.w3.org/1999/xlink" x="0px" y="0px"
	 viewBox="0 0 24 24" style="enable-background:new 0 0 24 24;" xml:space="preserve">
<g id="tangents_-_setRotate">
	<path style="fill:#3DA2EC;" d="M22,13.5v-3h-2.857c-0.189-0.901-0.547-1.74-1.036-2.486l2.024-2.025l-2.121-2.121l-2.024,2.025
		C15.24,5.404,14.401,5.046,13.5,4.857V2h-3v2.857C9.599,5.046,8.76,5.404,8.014,5.893L5.989,3.868L3.868,5.989l2.024,2.024
		C5.404,8.76,5.046,9.599,4.857,10.5H2v3h2.857c0.189,0.901,0.547,1.74,1.036,2.487l-2.025,2.024l2.121,2.121l2.025-2.024
		c0.746,0.489,1.585,0.847,2.486,1.036V22h3v-2.857c0.901-0.189,1.74-0.547,2.486-1.036l2.024,2.024l2.121-2.121l-2.024-2.024
		c0.489-0.746,0.847-1.585,1.036-2.487H22z M12,17.3c-2.922,0-5.3-2.378-5.3-5.3c0-2.922,2.377-5.3,5.3-5.3
		c2.922,0,5.3,2.377,5.3,5.3C17.3,14.922,14.922,17.3,12,17.3z"/>
</g>
<g id="Layer_1">
</g>
</svg>
