<?xml version="1.0" encoding="iso-8859-1"?>
<!-- Generator: Adobe Illustrator 24.1.0, SVG Export Plug-In . SVG Version: 6.00 Build 0)  -->
<svg version="1.1" xmlns="http://www.w3.org/2000/svg" xmlns:xlink="http://www.w3.org/1999/xlink" x="0px" y="0px"
	 viewBox="0 0 24 24" style="enable-background:new 0 0 24 24;" xml:space="preserve">
<g id="tangents_-_rotate">
	<path style="fill:#3DA2EC;" d="M12,3c-4.962,0-9,4.038-9,9c0,4.963,4.038,9,9,9c4.963,0,9-4.037,9-9C21,7.038,16.963,3,12,3z
		 M17.511,7.699L13,10.277V5.08C14.826,5.343,16.424,6.309,17.511,7.699z M12,19c-3.86,0-7-3.141-7-7c0-3.519,2.613-6.432,6-6.92
		v8.644l7.506-4.29C18.821,10.23,19,11.094,19,12C19,15.859,15.859,19,12,19z"/>
</g>
<g id="Layer_1">
</g>
</svg>
