<?xml version="1.0" encoding="iso-8859-1"?>
<!-- Generator: Adobe Illustrator 24.1.0, SVG Export Plug-In . SVG Version: 6.00 Build 0)  -->
<svg version="1.1" xmlns="http://www.w3.org/2000/svg" xmlns:xlink="http://www.w3.org/1999/xlink" x="0px" y="0px"
	 viewBox="0 0 24 24" style="enable-background:new 0 0 24 24;" xml:space="preserve">
<g id="tangents_-_flipV">
	<g>
		<path style="fill:#3DA2EC;" d="M19,2c-1.657,0-3,1.343-3,3c0,0.65,0.212,1.247,0.563,1.738L13,11.827V10h-2v1.827L7.437,6.738
			C7.788,6.247,8,5.65,8,5c0-1.657-1.343-3-3-3S2,3.343,2,5s1.343,3,3,3c0.277,0,0.54-0.05,0.795-0.12L12,16.744l6.205-8.864
			C18.46,7.95,18.723,8,19,8c1.657,0,3-1.343,3-3S20.657,2,19,2z"/>
		<rect x="11" y="2" style="fill:#3DA2EC;" width="2" height="4"/>
		<rect x="11" y="18" style="fill:#3DA2EC;" width="2" height="4"/>
	</g>
</g>
<g id="Layer_1">
</g>
</svg>
