<?xml version="1.0" encoding="iso-8859-1"?>
<!-- Generator: Adobe Illustrator 24.1.0, SVG Export Plug-In . SVG Version: 6.00 Build 0)  -->
<svg version="1.1" xmlns="http://www.w3.org/2000/svg" xmlns:xlink="http://www.w3.org/1999/xlink" x="0px" y="0px"
	 viewBox="0 0 24 24" style="enable-background:new 0 0 24 24;" xml:space="preserve">
<g id="tangents_-_swap">
	<g>
		<path style="fill:#3DA2EC;" d="M19.393,20.326c-1.522-1.163-4.694-3.684-7.393-6.433c-2.698,2.749-5.871,5.27-7.393,6.433
			l-1.215-1.588c2.583-1.977,5.181-4.245,7.226-6.325C8.457,9.96,6.951,7.485,7.538,5.75C8.004,4.373,9.506,3.674,12,3.674
			s3.995,0.699,4.462,2.076c0.587,1.734-0.918,4.209-3.08,6.662c2.044,2.08,4.643,4.349,7.226,6.325L19.393,20.326z M12,5.674
			c-1.714,0-2.45,0.371-2.567,0.717C9.147,7.235,10.208,8.926,12,10.94c1.792-2.014,2.854-3.705,2.567-4.549
			C14.45,6.045,13.714,5.674,12,5.674z"/>
	</g>
</g>
<g id="Layer_1">
</g>
</svg>
