<?xml version="1.0" encoding="iso-8859-1"?>
<!-- Generator: Adobe Illustrator 24.1.0, SVG Export Plug-In . SVG Version: 6.00 Build 0)  -->
<svg version="1.1" xmlns="http://www.w3.org/2000/svg" xmlns:xlink="http://www.w3.org/1999/xlink" x="0px" y="0px"
	 viewBox="0 0 24 24" style="enable-background:new 0 0 24 24;" xml:space="preserve">
<g id="tangents_-_flipH">
	<g>
		<path style="fill:#3DA2EC;" d="M7.88,5.795C7.95,5.54,8,5.277,8,5c0-1.657-1.343-3-3-3S2,3.343,2,5s1.343,3,3,3
			c0.65,0,1.247-0.212,1.738-0.563L11.827,11H10v2h1.827l-5.089,3.563C6.247,16.212,5.65,16,5,16c-1.657,0-3,1.343-3,3s1.343,3,3,3
			s3-1.343,3-3c0-0.277-0.05-0.54-0.12-0.795L16.744,12L7.88,5.795z"/>
		<rect x="2" y="11" style="fill:#3DA2EC;" width="4" height="2"/>
		<rect x="18" y="11" style="fill:#3DA2EC;" width="4" height="2"/>
	</g>
</g>
<g id="Layer_1">
</g>
</svg>
