<?xml version="1.0" encoding="iso-8859-1"?>
<!-- Generator: Adobe Illustrator 24.1.0, SVG Export Plug-In . SVG Version: 6.00 Build 0)  -->
<svg version="1.1" xmlns="http://www.w3.org/2000/svg" xmlns:xlink="http://www.w3.org/1999/xlink" x="0px" y="0px"
	 viewBox="0 0 24 24" style="enable-background:new 0 0 24 24;" xml:space="preserve">
<g id="tangents_-_pasteLength">
	<g>
		<polygon style="fill:#3DA2EC;" points="19,16 19,21 17,21 17,18 15,18 15,21 13,21 13,18 11,18 11,21 9,21 9,16 7,16 7,23 21,23 
			21,16 		"/>
		<path style="fill:#3DA2EC;" d="M3,6h8v2h2V4h-2.525C10.344,2.189,8.844,0.75,7,0.75S3.656,2.189,3.525,4H1v15h4v-2H3V6z M7,2.75
			c0.742,0,1.355,0.542,1.475,1.25H5.525C5.645,3.292,6.258,2.75,7,2.75z"/>
	</g>
</g>
<g id="Layer_1">
</g>
</svg>
