<?xml version="1.0" encoding="iso-8859-1"?>
<!-- Generator: Adobe Illustrator 24.1.0, SVG Export Plug-In . SVG Version: 6.00 Build 0)  -->
<svg version="1.1" xmlns="http://www.w3.org/2000/svg" xmlns:xlink="http://www.w3.org/1999/xlink" x="0px" y="0px"
	 viewBox="0 0 24 24" style="enable-background:new 0 0 24 24;" xml:space="preserve">
<g id="tangents_-_flatV">
	<g>
		<path style="fill:#3DA2EC;" d="M17,2c-1.657,0-3,1.343-3,3c0,0.506,0.137,0.976,0.359,1.394l-0.558,0.558C11.641,5.05,8.904,4,6,4
			V2H4v4h2c2.37,0,4.607,0.839,6.387,2.366L5.293,15.46l1.414,1.414l9.115-9.115C16.184,7.913,16.582,8,17,8c1.657,0,3-1.343,3-3
			S18.657,2,17,2z"/>
		<rect x="4" y="10" style="fill:#3DA2EC;" width="2" height="4"/>
		<rect x="4" y="18" style="fill:#3DA2EC;" width="2" height="4"/>
	</g>
</g>
<g id="Layer_1">
</g>
</svg>
