<?xml version="1.0" encoding="iso-8859-1"?>
<!-- Generator: Adobe Illustrator 24.1.0, SVG Export Plug-In . SVG Version: 6.00 Build 0)  -->
<svg version="1.1" xmlns="http://www.w3.org/2000/svg" xmlns:xlink="http://www.w3.org/1999/xlink" x="0px" y="0px"
	 viewBox="0 0 24 24" style="enable-background:new 0 0 24 24;" xml:space="preserve">
<g id="tangents_-_pasteAngle">
	<g>
		<path style="fill:#3DA2EC;" d="M18.953,21c-0.174-1.903-0.842-3.73-1.934-5.295l2.101-1.704l-1.26-1.553L4.852,23H22v-2H18.953z
			 M15.458,16.972c0.81,1.202,1.318,2.585,1.48,4.028h-6.445L15.458,16.972z"/>
		<path style="fill:#3DA2EC;" d="M5,17H3V6h8v2h2V4h-2.525C10.344,2.189,8.844,0.75,7,0.75S3.656,2.189,3.525,4H1v15h4V17z M7,2.75
			c0.742,0,1.355,0.542,1.475,1.25H5.525C5.645,3.292,6.258,2.75,7,2.75z"/>
	</g>
</g>
<g id="Layer_1">
</g>
</svg>
