<?xml version="1.0" encoding="iso-8859-1"?>
<!-- Generator: Adobe Illustrator 24.1.0, SVG Export Plug-In . SVG Version: 6.00 Build 0)  -->
<svg version="1.1" xmlns="http://www.w3.org/2000/svg" xmlns:xlink="http://www.w3.org/1999/xlink" x="0px" y="0px"
	 viewBox="0 0 24 24" style="enable-background:new 0 0 24 24;" xml:space="preserve">
<g id="tangents_-_opposeAngle">
	<path style="fill:#3DA2EC;" d="M19,16c-0.462,0-0.895,0.113-1.286,0.3L16,14.587V10h-4.589L7.699,6.289C7.886,5.897,8,5.463,8,5
		c0-1.657-1.343-3-3-3S2,3.343,2,5s1.343,3,3,3c0.462,0,0.895-0.113,1.286-0.3L10,11.414V16h4.586l1.714,1.714
		C16.113,18.105,16,18.538,16,19c0,1.657,1.343,3,3,3s3-1.343,3-3S20.657,16,19,16z"/>
</g>
<g id="Layer_1">
</g>
</svg>
